<svg xmlns="http://www.w3.org/2000/svg" width="35.879" height="30.93" viewBox="0 0 35.879 30.93">
  <g id="Icon_feather-youtube" data-name="Icon feather-youtube" transform="translate(1.5 1.5)">
    <path id="Path_27" data-name="Path 27" d="M33.69,10.372a4.708,4.708,0,0,0-2.9-3.613C28.22,6,17.939,6,17.939,6S7.657,6,5.087,6.831a4.708,4.708,0,0,0-2.9,3.613A63.071,63.071,0,0,0,1.5,20a63.073,63.073,0,0,0,.687,9.629,4.66,4.66,0,0,0,2.9,3.469c2.57.831,12.852.831,12.852.831s10.282,0,12.852-.831a4.708,4.708,0,0,0,2.9-3.613A63.067,63.067,0,0,0,34.377,20a63.072,63.072,0,0,0-.687-9.629Z" transform="translate(-1.499 -6)" fill="none" stroke="#fff" stroke-linecap="round" stroke-linejoin="round" stroke-width="3"/>
    <path id="Path_28" data-name="Path 28" d="M14.625,22.53l8.625-4.905-8.625-4.9Z" transform="translate(-1.566 -3.619)" fill="none" stroke="#fff" stroke-linecap="round" stroke-linejoin="round" stroke-width="3"/>
  </g>
</svg>
